<?xml version="1.0" encoding="UTF-8" standalone="no"?>
<!-- Created with Inkscape (http://www.inkscape.org/) -->

<svg
   xmlns:dc="http://purl.org/dc/elements/1.1/"
   xmlns:cc="http://creativecommons.org/ns#"
   xmlns:rdf="http://www.w3.org/1999/02/22-rdf-syntax-ns#"
   xmlns:svg="http://www.w3.org/2000/svg"
   xmlns="http://www.w3.org/2000/svg"
   xmlns:sodipodi="http://sodipodi.sourceforge.net/DTD/sodipodi-0.dtd"
   xmlns:inkscape="http://www.inkscape.org/namespaces/inkscape"
   width="6mm"
   height="6mm"
   viewBox="0 0 5.9999999 6"
   version="1.1"
   id="svg8"
   inkscape:version="0.92.3 (2405546, 2018-03-11)"
   sodipodi:docname="favi.svg">
  <defs
     id="defs2" />
  <sodipodi:namedview
     id="base"
     pagecolor="#ffffff"
     bordercolor="#666666"
     borderopacity="1.0"
     inkscape:pageopacity="0.0"
     inkscape:pageshadow="2"
     inkscape:zoom="31.678384"
     inkscape:cx="11.078831"
     inkscape:cy="8.0821084"
     inkscape:document-units="mm"
     inkscape:current-layer="layer1"
     showgrid="false"
     inkscape:window-width="1720"
     inkscape:window-height="1373"
     inkscape:window-x="1711"
     inkscape:window-y="-9"
     inkscape:window-maximized="0" />
  <metadata
     id="metadata5">
    <rdf:RDF>
      <cc:Work
         rdf:about="">
        <dc:format>image/svg+xml</dc:format>
        <dc:type
           rdf:resource="http://purl.org/dc/dcmitype/StillImage" />
        <dc:title></dc:title>
      </cc:Work>
    </rdf:RDF>
  </metadata>
  <g
     inkscape:label="Layer 1"
     inkscape:groupmode="layer"
     id="layer1"
     transform="translate(-29.636016,-117.18159)">
    <rect
       style="opacity:1;fill:#ffccaa;fill-opacity:0.28358208;fill-rule:evenodd;stroke:#efd7d7;stroke-width:0;stroke-linecap:round;stroke-linejoin:round;stroke-miterlimit:4.0333333;stroke-dasharray:none;stroke-dashoffset:0;stroke-opacity:0"
       id="rect826"
       width="7.3081512"
       height="6.7986684"
       x="29.059715"
       y="116.85899" />
    <g
       aria-label="JR"
       style="font-style:normal;font-variant:normal;font-weight:normal;font-stretch:normal;font-size:3.85428262px;line-height:1;font-family:'Roboto Slab';-inkscape-font-specification:'Roboto Slab';letter-spacing:0px;word-spacing:0px;fill:#000000;fill-opacity:1;stroke:none;stroke-width:0.20647943"
       id="text817"
       transform="translate(-0.15869128,0.04176083)">
      <path
         d="m 32.556457,118.79931 v 0.23901 l -0.306761,0.0527 v 1.69001 c 0,0.24466 -0.07779,0.43913 -0.233365,0.58341 -0.154322,0.14303 -0.355066,0.21455 -0.602232,0.21455 -0.263476,0 -0.473002,-0.0665 -0.628579,-0.19949 -0.155577,-0.13425 -0.230228,-0.32872 -0.223955,-0.58341 l 0.0038,-0.0113 h 0.355693 c 0,0.16937 0.04266,0.29609 0.127974,0.38015 0.08657,0.0828 0.208272,0.12421 0.365103,0.12421 0.136757,0 0.248421,-0.0458 0.334992,-0.13738 0.08657,-0.0928 0.131785,-0.21644 0.129856,-0.37075 v -1.69001 l -0.306762,-0.0527 v -0.23901 h 0.677511 z"
         style="stroke-width:0.20647943"
         id="path821"
         inkscape:connector-curvature="0"
         sodipodi:nodetypes="cccscscccccscsccccc" />
      <path
         d="m 33.759046,118.80119 q 0.44791,0 0.686921,0.19949 0.239011,0.19761 0.239011,0.56271 0,0.19949 -0.111037,0.35382 -0.111036,0.15432 -0.318054,0.24277 0.223955,0.0734 0.321818,0.23901 0.09974,0.16561 0.09974,0.40839 v 0.22019 q 0,0.12609 0.03199,0.18632 0.03199,0.0602 0.105391,0.0715 l 0.09034,0.0113 v 0.24278 h -0.19949 q -0.216427,0 -0.308643,-0.15056 -0.09034,-0.15056 -0.09034,-0.3651 v -0.21267 q 0,-0.22395 -0.129856,-0.35945 -0.129857,-0.13551 -0.348166,-0.13551 h -0.594703 v 0.93346 l 0.306761,0.0527 v 0.23713 h -0.984272 v -0.23713 l 0.306762,-0.0527 v -2.15862 l -0.306762,-0.0527 v -0.23713 h 0.306762 z m -0.52507,1.22329 h 0.487431 q 0.310526,0 0.451674,-0.11857 0.141148,-0.11856 0.141148,-0.34628 0,-0.21643 -0.135502,-0.34252 -0.135503,-0.12609 -0.419681,-0.12609 h -0.52507 z"
         style="stroke-width:0.20647943"
         id="path823"
         inkscape:connector-curvature="0" />
    </g>
  </g>
</svg>
